# Blender v2.76 (sub 0) OBJ File: ''
# www.blender.org
mtllib skybox.mtl
o Cube.001
v 1.000000 1.000000 -1.000000
v 1.000000 -1.000000 -1.000000
v -1.000000 1.000000 1.000000
v 1.000000 -1.000000 1.000000
v -1.000000 1.000000 -0.999999
v 0.999999 1.000000 1.000001
v -1.000000 1.000000 -1.000000
v -1.000000 -1.000000 -1.000000
v 0.999999 1.000000 1.000001
v 1.000000 1.000000 -0.999999
v -1.000001 1.000000 1.000000
v 0.999999 1.000000 1.000001
v -1.000000 -1.000000 1.000000
v 1.000000 -1.000000 1.000000
v -1.000000 1.000000 1.000000
v -1.000000 1.000000 -0.999999
v 1.000001 1.000000 -0.999999
v -1.000000 -1.000000 -1.000000
v -1.000000 -1.000000 -1.000000
v 1.000000 -1.000000 -1.000000
v -1.000000 -1.000000 1.000000
v -1.000000 -1.000000 1.000000
v 1.000000 -1.000000 1.000000
v 1.000000 -1.000000 -1.000000
vt 1.000000 0.500000
vt 1.000000 1.000000
vt 0.666667 1.000000
vt 0.666667 0.500000
vt 0.666667 0.000000
vt 1.000000 -0.000000
vt -0.000000 -0.000000
vt 0.333333 0.000000
vt 0.333333 0.500000
vt 0.000000 0.500000
vt 0.333333 1.000000
vt 0.000000 1.000000
vn 0.000000 1.000000 0.000000
vn 0.000000 -1.000000 0.000000
vn -1.000000 -0.000000 -0.000000
vn 0.000000 0.000000 -1.000000
vn 1.000000 0.000000 0.000000
vn 0.000000 -0.000000 1.000000
usemtl Material.001
s 1
f 19/1/1 21/2/1 14/3/1 24/4/1
f 9/5/2 11/6/2 16/1/2 17/4/2
f 20/7/3 23/8/3 12/9/3 10/10/3
f 4/9/4 13/4/4 15/3/4 6/11/4
f 3/12/5 22/10/5 18/9/5 7/11/5
f 5/9/6 8/8/6 2/5/6 1/4/6
