# Blender v2.76 (sub 0) OBJ File: ''
# www.blender.org
mtllib skybox.mtl
o Cube.001
v -1.000000 -1.000000 -1.000000
v -1.000000 -1.000000 1.000000
v 1.000000 -1.000000 1.000000
v 1.000000 -1.000000 -1.000000
v 0.999999 1.000000 1.000001
v -1.000001 1.000000 1.000000
v -1.000000 1.000000 -0.999999
v 1.000001 1.000000 -0.999999
v -1.000000 -1.000000 1.000001
v -1.000000 -1.000000 -0.999999
v -0.999999 1.000000 -1.000001
v -1.000000 1.000000 0.999999
v 1.000000 -1.000000 1.000000
v -1.000000 -1.000000 1.000000
v -1.000000 1.000000 1.000000
v 0.999999 1.000000 1.000001
v 1.000000 1.000000 -1.000000
v 1.000000 -1.000000 -0.999999
v 1.000000 -1.000000 1.000001
v 1.000000 1.000000 1.000000
v -1.000000 1.000000 -0.999999
v -1.000000 -1.000000 -1.000000
v 1.000000 -1.000000 -1.000000
v 1.000000 1.000000 -1.000000
vt 1.000000 0.500000
vt 1.000000 1.000000
vt 0.666667 1.000000
vt 0.666667 0.500000
vt 0.666667 0.000000
vt 1.000000 -0.000000
vt -0.000000 -0.000000
vt 0.333333 0.000000
vt 0.333333 0.500000
vt 0.000000 0.500000
vt 0.333333 1.000000
vt 0.000000 1.000000
vn 0.000000 1.000000 0.000000
vn 0.000000 -1.000000 -0.000000
vn 1.000000 -0.000000 0.000000
vn 0.000000 0.000000 -1.000000
vn -1.000000 0.000000 0.000000
vn 0.000000 -0.000000 1.000000
usemtl Material.001
s 1
f 1/1/1 2/2/1 3/3/1 4/4/1
f 5/5/2 6/6/2 7/1/2 8/4/2
f 9/7/3 10/8/3 11/9/3 12/10/3
f 13/9/4 14/4/4 15/3/4 16/11/4
f 17/12/5 18/10/5 19/9/5 20/11/5
f 21/9/6 22/8/6 23/5/6 24/4/6
